<?xml version="1.0" encoding="UTF-8"?>
<svg id="Artwork" xmlns="http://www.w3.org/2000/svg" version="1.1" viewBox="0 0 1420.33 865.19">
  <!-- Generator: Adobe Illustrator 30.3.0, SVG Export Plug-In . SVG Version: 2.1.3 Build 182)  -->
  <defs>
    <style>
      .st0 {
        fill: #171a20;
      }
    </style>
  </defs>
  <path class="st0" d="M1349.82,694.91c-.57-1.69-1.14-3.86-1.36-6.41-.38-4.31.35-7.88,1.02-10.19-.72-.91-1.84-2.22-3.35-3.66-5.86-5.55-12.07-7.74-13.94-8.44-11.54-4.34-15.64-12.06-34.03-22.85,0,0-12.25-7.19-25.95-12.09-10.98-3.93-34.76-10.35-69.56-3.34-.98-.81-2.49-2.09-4.22-3.73-7.13-6.75-10.02-11.9-13.23-15.76-6.37-7.66-14.49-10.9-18.95-12.68-11.84-4.73-22.5-3.24-30.01-2.44-8.98.95-19.71,5.2-41.23,13.23-2.15.8-7.07,2.66-13.9,4.32-5.9,1.44-10.8,2.15-13.9,2.51.63-3.19,1.62-8.03,2.95-13.92,3.82-16.88,4.91-17.87,5.89-24.28,1.2-7.86,2.74-20.39-3.44-32.8-4.73-9.49-12.99-14.27-17.03-16.6-14.1-8.15-28.29-6.55-35.46-5.63-9.22,1.18-16.1,3.97-26.27,8.82-14.97,7.15-25.02,13.02-46.15,25.52-19.07,11.27-27.11,16.06-41.5,24.44-7.48,4.36-11.7,6.82-17.06,9.88-44.88,25.71-68.9,36.58-78.45,40.77-7.1,3.11-13.93,5.93-22.59,8.74-12.07,3.92-22.29,6.08-29.13,7.3-1.65-.82-4.23-2.39-6.3-5.21-1.67-2.27-3.46-5.96-3.33-12.72.38-19.55,13.69-41.1,13.69-41.1,5.05-9.45,13.66-21.75,28.22-29.41,4.93-2.59,8.85-3.77,10.54-4.29,26.16-8.18,62.08-31.87,80.92-44.3,62.64-41.32,67.93-56.87,69.49-62.99,1.24-4.89,4.45-17.54-1.98-28.89-4.28-7.57-11.03-11.31-15.48-13.81-4.34-2.44-13.2-6.63-32.23-7.3-11.17-.39-24.29.48-40.51,4.34-29.83,7.08-50.9,19.66-63.25,27.16-14.82,9-25.44,17.53-32.13,22.94-10.19,8.24-15.52,13.56-33.45,30.52-8.13,7.7-20.17,19.03-35.12,32.89-3.19.45-8.03,1.22-13.88,2.44-19.56,4.08-29.35,6.12-37.48,13.51-8.65,7.85-11.25,17.92-12.24,21.95-2.9,11.81-3.11,32.46,10.49,42.09,5.75,4.07,12.07,4.9,16.08,5.02-.61,4.68-1.4,11.66-1.93,20.16-1.59,25.1-2.53,39.98,3.13,56.29,6.28,18.11,17.75,29.48,21.83,33.23,18.58,17.13,40.04,20.55,48.11,21.73,32.37,4.72,58.08-8.65,102.42-32.42,26.29-14.09,29.94-18.99,67.79-41.15,26.53-15.53,48.82-27.23,63.63-34.74-.65,5.13-1.36,12.44-1.41,21.25-.06,10.75-.1,16.71,1.97,23.36,4.06,13.03,13.71,20.68,16.74,23.08,22.24,17.61,53.82,10.69,60.84,9.15,7.88-1.73,8.33-2.92,57.78-24.77,6.85-3.02,12.51-5.51,16.32-7.18,3.73,14.38,10.89,20.38,14.49,22.79,13.62,9.14,32.67,4.88,46.29,1.83,15.33-3.43,19.57-7.7,30.58-6.09,7.59,1.11,11.87,4.05,21.48,9.47,0,0,11.65,6.56,37.01,18.41,12.6,5.89,32.08,11.06,61.7,6.96,5.05.36,6.77-.67,7.37-1.75.49-.9.16-1.74.8-3.01.8-1.57,2.39-2.37,3.63-2.8.44-2.37,1.4-3.72,2.42-4.52,2.09-1.64,4.39-.91,5.42-2.6.54-.89.23-1.62.07-3.73-.11-1.53-.13-3.73.32-6.47v-.03ZM906.28,405.64c-1.84.27-2.34-.23-2.07-2.07,1.84-.27,2.34.23,2.07,2.07ZM914.56,404.87h-.01c-3.7-6.22,2.44-3.38,5.93-3.05,5.55.68,12.07,11.32,3.19,9.04-8.36-8.68-.09,1.44-4.83,3.38l1.46,3.94h-3.59c1.76-3.45-1.97-4.35.65-7.45-.35-2.64-8.74-3.05-2.8-5.86ZM909.21,400.69c.45,3.67-4.74,1.43-5.74-.73l5.74.73ZM884.89,404.8h.01c.58-4.83,4.17-5.65,8.53-5.25,7.33.67.26,4.67,3.56,7.58-4.38-1.05-7.51-6.51-7.2,1.44,14.54-1.73,4.6,19.7,2.55,3.57-.81-1.27-8.13-1.67-7.45-7.34ZM879.39,401.41c.74.29,3.95-.84,3.18,1.16-.74-.29-3.95.84-3.18-1.16ZM865.37,403.54c1.16.17,3.28,4.56,2.87,5.03-1.33,1.48-3.16-4.19-2.87-5.03ZM770.18,480.47c-1.05.35-.61-.87-.7-1.43,1.05-.35.61.87.7,1.43ZM773.06,468.25c-.57-.09-1.78.35-1.43-.7.56.09,1.78-.35,1.43.7ZM792.12,508.51c-2.2-.8.17-3.73,1.79,0-.57-.06-1.36.16-1.79,0ZM796.05,505.64c-.47.5-5.47-4.45-7.15-2.9.43-6.4-6.8-6.15-10.09-9.68-.92-1.77,3.62-.56,3.59-2.5-2.24.31-6.86.92-3.66-2.42.12-1.4-7.82-11.49-2.09-9.81.22-.2-2.07-5.13,2.86-1.07-.11,1.6-5.11,3.46.03,3.64,2.88-.5.68-5.97-.02-7.98l-5.04,1.09c3.11-8.59,10.04-3.33,9.51,3.08,2.66,9.1,12.24,19.28,12.06,28.55ZM780.95,444.14v1.42c-4.77.31-5.21-3.64,0-1.42ZM777.38,449.08c.95-.95,5.07,1.82,5.01,3.24-.11,2.8-6.68-1.58-5.01-3.24ZM774.14,463.91c2.98-.78.87-3.18.37-5,.73.78,3.78,3.3,4.08,3.81,4.58,5.61-5.97,5.56-4.45,1.19ZM773.78,458.18c-5.47-2.19-1.56,4.34-7.18-1.43,3.11,1.71,6.98-2.57,7.18,1.43ZM766.6,468.25c.69.97,2.43,1.66,0,1.43v-1.43ZM682.03,537.18v-6.21c5.18-1.63,3.88,5.22,0,6.21ZM680.89,524.48c2.78.04,4.4-.19,5.04-3.23,8.98,1.09-1.28,8.55-5.04,3.23ZM775.82,651.5h0c-9.52,2.02-21.5-4.47-3.72-2.58,3.97-.01,10.53-.95,14.32-1.89,3.15,1.91-9.63,4.38-10.6,4.47ZM1022.34,534.18c-1.66-1.43-.35-3,.72-4.28,1.66,1.43.35,3.01-.72,4.28ZM1031.59,526.27c-1.1-.18-3.45.68-2.78-1.37,1.1.18,3.45-.68,2.78,1.37ZM1046.43,539.23c-3.95.46-3.95-4.04,0-3.59v3.59ZM1062.65,539.24c-9.42,9.31-8.19-8.12-17.61-6.88-4.71-2.12-3.3-2.15-9.01-3.22-3.4-.64-4.12-4.94,1.08-3.16l.7-3.29c6.51,6.95,3.58-.3,12.93,6.83.65,3.33-5.82,1.62,2.88,5.11,2.27-1.4,7.62-1.77,5.75,2.43l1.78-1.43c.86.82,2.2,2.28,1.49,3.6h.01Z"/>
  <path class="st0" d="M784.42,493.2c6.49,5.69,3.27,1.59,4.45-3.38-.98,2.07-8.81.46-4.45,3.38Z"/>
  <path class="st0" d="M783.84,486.23c-1.8-.47-1.4.93-1.43,2.15,1.8.46,1.4-.93,1.43-2.15Z"/>
  <path class="st0" d="M753.65,322.3c-.56-1.84-2.73-1.44-4.31-1.42.56,1.83,2.73,1.44,4.31,1.42Z"/>
  <path class="st0" d="M666.46,397.81h-.01c37.2,17.36,85.22.64,115.65-9.83,31.16-10.73,60.48-25.76,85.48-38.59,9.26-4.75,16.84-8.83,21.96-11.63,12.44-1.49,29.97-5.65,46.85-17.45,9.43-6.6,21.64-15.13,24.34-29.97.52-2.87,2.19-12.02-2.81-19.87-8.72-13.68-31.28-13.37-44.73-9.35-18.08,5.4-27.52,19.84-30.41,24.72-10.45,1.73-26.52,4.39-46.17,7.62-53.8,8.83-80.79,13.26-85.11,13.53-45.86,2.91-60.94-5.81-84.85,8.14-6,3.5-19.24,11.48-25.14,27.51-1.54,4.19-6.31,19.06.75,33.77,1.13,2.36,6.65,13.21,24.2,21.4ZM956.8,283.69l-.3-.17c-1.95-1.85-.15-2.54,1.64-2.88l.16.2c.21,1.39-.09,2.36-1.5,2.85ZM957.84,277.52h0c.17.46.49,1.12.39,1.59-.21.15-1.65.12-2.32.23-.43.42-.85.68-1.35,1.01-.61-.11-.58,0-.94-.37-.12-2.14,2.69-2.24,4.22-2.46ZM954.21,283.71h.01c.13,2.53.37,6.61-3.45,5.87-.05-.02-.11-.04-.16-.06-1.4-.57-3.65-2.78-4.57-4.03-.4-.55,2.96-3.27,3.43-3.43,2.56-.14,2.58.34,4.74,1.65ZM928.01,262.59h0c3.18,1.16,6.29.74,9.53,1.43.1.03.83,1.46.97,1.68l-.02.19-.25.12c-.49-.42-.4-.48-.92-.51-.36.31-.43.88-.54,1.36-.14-.33-.23-.53-.42-.86l-.26-.09c-.24.36-.17.85-.16,1.3l-.17.57-.24.11c-.12-.1-.42-.38-.42-.38-.14-.87,0-1.73-.49-2.15l-.57.04h0c-2.25-.29-3.37-.9-6-1.12-.53-.35-.37-1.25-.05-1.69ZM925.8,270.25v-.04c1.87.67,4.14.66,6.11.65l.68-.07.39-.13c.09-.7.03-1.32.3-1.93.55.27.64,3.31,1.19,4.17l.14-.02c.28-1.01.65-.98,1.26-1.85l.07-.09.55-.61c.39.12.28.19.55.45.44.43.2-.09.92-.1.57.5.13,1.02.61,1.64.48.21.27.19.79.08.39-.39.3-.21.43-.74-.62-.65-.72-.99-.75-1.89l.14-.15.77.05.09-.15c-.23-.63-.89-.64-1.14-1.15-.44-.91-.17-1.55-.1-2.41l.07-.27c.04-.18.06-.14.38-.37,1.6-.31,8.54,3.23,8.83,4.64-.21,1.7-1.34,1.3-2.32,2.07-1.99,1.57-3.17,3.63-6.11,3.17-.66-.1-.73-.51-.87-.54-1.83-.42-2.71-.62-4.18-1.74l-.15.02c-1.48.31-8.02-.77-8.81-2.12l.16-.57ZM923.39,275.22h0c1.02.16.22.95.95,1.2.24-.63.13-.88.53-1.26,1.88-.15,4.55.46,6.4.97,1.61.45,6.67.55,7.11,2.1-.49,3.11-5.52,3.8-7.55,1.83.06-.74.43-1.39.26-1.87-.47-.12-.84.1-1.29.3-.81.05-.88.28-1.58.47-2.61.73-3.47,1.07-6.02.03v-.02c.64-1.19.75-.33,1.54-1.16.51-1.59-.34-1.43-.58-2.62l.23.03ZM918.11,275.87h0s.02,0,.02,0c.37-.15,3.38-.59,4.45-.7l.33-.03c-.06.86-.06,1.42-.34,2.24-.29-.52-.27-.73-.69-.86l-.42.11-.22.12c-.59-.06-1.11-.18-1.71-.17-.61,0-1.41.41-1.93.25-.03-.46.13-.48.5-.95ZM917,278.18c.6-.31,1.85-.04,2.49-.05.46,0,.2-.74.85-.75.36.29.33.89.58,1.36l-.09.43c-1.41.03-2.68.09-3.88-.68l.06-.31h0ZM874.09,293.67c-1.18,3.04-8.06.57-10.71,1.31,1.18-3.04,8.06-.57,10.71-1.31ZM741.79,320.72c-.96,0-7.98-1.01-8.28-1.3-2.47-3.21,20.26-.38,8.28,1.3ZM782.05,312.23c2.19.64,6.5-1.59,5.04,2.18.19,1.38-16.45-1.97-16.92-1.82.12-3.88,9.73-.66,11.88-.36ZM774.5,317.28h2.87c.67,1.07-3.54,1.07-2.87,0ZM773.06,317.99c-1.58.02-3.76.41-4.31-1.42,1.58-.02,3.76-.41,4.31,1.42ZM754.37,312.97c.75-.59,2.52,1.14,2.16,1.42-.75.59-2.52-1.14-2.16-1.42ZM761,320.35h0c4.9.74,9.23,2.23,14.57,2.54,12.82,1.11-22.33,2.94-27.72-.18-8.11-4.17,9.6-3.97,13.15-2.36ZM737.5,312.21c3.05,1.16,14.18-1.14,12.19,1.47h-17.62c-2.34-1.77,4.7-1.5,5.43-1.47Z"/>
  <path class="st0" d="M444.63,106.05c1.36-1.27-.03-1.68-1.05-2.36-1.36,1.27.03,1.68,1.05,2.36Z"/>
  <path class="st0" d="M457.73,86.36c-1.32-1.3-1.68.1-2.31,1.15,1.33,1.3,1.68-.1,2.31-1.15Z"/>
  <path class="st0" d="M447.68,92.65h0c.1.34,5.79,1.43,7.03.75.1-.95-1.54-9.88-3.81-2.59-.53.68-3.55.67-3.22,1.84Z"/>
  <path class="st0" d="M454.05,83.78l-.92-.54c-2.4,3.65,2,5.15.92.54Z"/>
  <path class="st0" d="M452.55,458.57h1.07c.25-4.35-4.31-3.45-1.07,0Z"/>
  <path class="st0" d="M448.79,450.98c.39.87,6.28,7.79,4.6.34.11-.86,2.74-2.36,1.87-3.2-.26-.25-5.73,1.65-6.47,2.86Z"/>
  <path class="st0" d="M448.07,458.18c1.8.47,1.4-.93,1.43-2.15-1.8-.47-1.4.93-1.43,2.15Z"/>
  <path class="st0" d="M638.92,485.47l.02.03c-.31-1.99-1.65-9.28-8.45-18.61-3.17-4.35-9.07-9.16-20.89-18.79-11.81-9.62-18.22-13.8-21.89-16.06-8.36-5.15-21.07-11.73-38.34-16.37-38.24-12.88-67.65-19-78.04-18.19-3.66.29-9.66.76-14.78,4.73-2.87,2.23-5.97,5.95-7,7.19-2.17,2.61-3.8,5.28-3.82,5.32,0,0-.01.02-.02.02-11.42,18.73-159.89,173.93-195.43,214.94-4.51,5.21-18.24,21.31-40.15,38.09-7.49,5.73-13.79,9.91-17.26,12.14,8.02-29.3,16.65-59.17,25.94-89.56,14.46-47.33,29.55-92.78,45.02-136.31,7.25-19.91,16.55-42,28.59-65.37,27.64-53.63,66.05-92.38,106.5-136.42,23.63-25.73,46.24-51.19,67.86-76.27,25.56-27.95,26.95-66.52,8.27-88.08-13.41-15.47-35.94-20.79-54.04-18.01-16.14,2.48-28.01,10.32-35.71,18.48-17.67,18.74-41.15,45.41-65.97,79.37-30.47,41.68-49.77,76.5-87.15,144.43-20.2,36.73-33.73,63.18-60.79,116.09-21.49,42.03-52.68,103.95-78.74,174.25-4.55,12.26-9.18,35.37-18.45,81.57-3.55,17.68-6.96,36.2,2.06,54.6,5.19,10.58,12.68,17.43,16.89,21.2,13.65,12.26,28.39,17.56,38.12,19.98,3.28.81,6.37,2.23,9.16,4.13,2.27,1.54,4.57,3.09,6.89,4.63.02.01.04.03.06.04,4.83,3.2,10.37,5.21,16.14,5.73,42.94,3.89,73.48-39.63,96.28-70.46,33.77-42.84,68.88-85.47,109.09-121.64,1.22,5.46,3.05,13.37,5.55,22.85,3.99,15.17,5.99,22.76,8.2,27.96,9.45,22.22,33.24,32.58,39.5,35.3,3.28,1.43,36.74,15.4,68.85.08,12.48-5.96,18.13-13.18,39.35-41.25,79.13-104.71,73.42-98.43,76.02-102.35,10.03-15.15,26.92-27.91,32.28-46.11.6-3.03,1.16-7.72.28-13.3ZM475.53,112.87h0c.76,3.85.9,6.03-2.07,8.95-1.44.33-2.01.45-3.48.1-.26-.1-.51-.2-.76-.31-1.84-.8-5.98-4.54-7.02-6.29-.73-1.23,2.1-2.72,2.79-3.31,1.04-.89,1.85-2.02,3.18-2.44,3.51-.26,5.1.87,7.36,3.3ZM449.96,85.8h.02c.11-.7.22-1.4.34-2.1.06-.28.14-.54.22-.81,1.34-1.14,1.62-1.27,3.3-1.13l.14.08c2.15,1.2,13.01,5.8,13.65,7.64-.21,1.43-3.82,3.33-5.1,4.34-1.6,1.25-3.85,3.82-5.38,4.84-1.94,1.29-5.42-1.01-7.18-1.67-1.92-.72-3.75-1.64-5.68-2.47.61-1.51.31-.75.72-1.92l.5-.68c.05-.07.1-.13.15-.2,1.15.32,1.71-1.18,3.19-1.33,1.22-.05.95-.78.64-1.01-.79-.31-.86.76-1.77.24,0,0-.06-.08-.11-.11.47-.5.89-1,1.23-1.63l.83-1.24.25-.7.04-.14ZM446.97,90.2c.12-.13.24-.25.36-.37l.21.19c-.18.54-.55.6-.96.63.15-.16.28-.32.4-.45h0ZM446.66,84.54c-.67,0-1.65.06-2.16-.3-.22-.53-.2-.29-.05-.9.95.18,1.8-.16,2.34.67l-.14.53h.01ZM445.49,91.94l-.49.67c.12-.19.3-.42.49-.67ZM432.9,77.82c1.15-.07,5.82.07,6.73.47-.17.28-.49.41-.79.57.39.27,4.2.28,5,.29,2.33.03,3.72.26,5.97.92.02.68.15.82-.16,1.28-.5.06-.8,0-1.29-.07l-4.71.11c-4.17-.36-6.9-1.63-11.04-2.31.05-.71-.07-.78.3-1.24v-.02ZM431.65,91.29h.01c.06-.14.59-.15.99-.16.4-.01,3.78.06,5.75-.01.38.02.83.03,1.31.02-.08.08-.16.17-.24.26.35-.13.68-.22.99-.27.41-.01.82-.04,1.2-.06.58.03,1.09.14,1.49.2,0,0,.15,1.11,0,1.54-.09,0-.19,0-.29.04-.03.18-.05.26-.03.33-.35.12-.64.22-1.04.32l-4.15-.11c-1.65-.12-3.06-.57-4.6-1.09l-1.54-.55.15-.46ZM424.2,103.32c.76-.04,2.31-.09,2.9-.48-.37-.28-.64-.18-1.2-.19l-.68-.26-.29-.2c.26-.15.65-.25,1.03-.33,2.5,1.15,7.19.08,10.8-.45-1.5-2.04-5.68-1.46-9.5-.84,0-.91-.11-2.04.14-2.81,4.23-.73,7.64.85,11.62,1.7l6.41,1.36c-1.44.33-1.32,2.28,1.95,1.66l.58-.9c-.19-.14-.38-.25-.56-.35,1.01.2,1.97.37,2.99.7.17,1.51.35,1.95-.67,3.25-1.07,1.31-3.38,2.6-5.09,2.68-1.83.09-4.92-.52-6.46-1.52-.53-.34.05-2.68.16-3.3-1.23.25-2.45.3-3.52.54-4.4.97-6.09,2-10.51.91-.21-.21-.38-.51-.53-.77l.44-.39h-.01ZM415.15,102.07c.95-.64,3.34.11,5.01-.13l.58.13c.62.11.54.19,1.06-.02.05-.39-.05-.56-.17-.94.24-.46.08-.32.61-.52.46.43.37,1.53.45,2.26-.75.74-5.9.34-7,.09l-.75-.55.22-.32h0ZM412.42,483.17c-1.65-1.23-1.69-2.02-.02-3.25,1.38.97,2.98,3.84.02,3.25ZM419.31,479.76c-3.47,1.02-1.78-3.23-2.15-5.04,4.53-.92,2.13,2.48,2.15,5.04ZM428.78,474.82c-.69,1.22-3,4.21-1.97,5.72,3.84.13,1.88,2.6,1.5,4.97-2.19-1.91.48-5.11-3.24-4.31-.56-.53,4.45-13.41,7.18-11.5.24,3.99,2.41,6.83-3.47,5.12ZM435.14,476.16l.22-2.82c1.16-.43,1.03,1.15,1.15,1.68l-1.37,1.14ZM438.73,480.47c-.59-.88.5-1.68,1.08-2.15.11,1.23.9,2.6-1.08,2.15ZM448.06,473.25c-1.61.53-.94-1.33-1.08-2.19,1.61-.53.94,1.33,1.08,2.19ZM454.54,458.9h.01c-.79,1.36.83,3.91-2.88,1.75-.96.12-7.76,12.26-8.3,6.84-3.45,1.6-2.3-.41-2.48-2.83l4.31.71c.3-5.6-6.07-.8-7.88.03-1.25,1.81,6.89,7.41-.04,5.38-10.76-3.15,6.29-13.73,9.03-17.6,2.13-6.82,7.36-11.49,12.91-15.84,1.17,2.54-.9,5.23,1.07,7.5-5.03,3.12-2.77,8.34-5.75,14.06ZM464.16,441.47c-2.94.96-1.73-2.38-1.98-3.96,2.94-.96,1.73,2.38,1.98,3.96ZM537.81,521.65h-.01c-.65,1.69-5.32,10.37-5.36,10.45v.03c-18.28,35.67-37.39,55.6-37.51,55.72-3.48,3.25-8.86,7.87-16.18,12.69-.61-19.67.36-36.32,1.59-48.99.23-2.37,2.62-25.77,13.16-53.33,3.33-8.72,6.19-14.48,10.74-15.1,3.91-.53,5.92,3.17,20.11,18.66,9.4,10.25,15.05,15.75,13.46,19.87Z"/>
</svg>