<svg width="67" height="15" viewBox="0 0 67 15" fill="none" xmlns="http://www.w3.org/2000/svg">
  <path fill-rule="evenodd" clip-rule="evenodd" d="M24.3086 3.36523C25.0385 3.36523 25.6897 3.55024 26.2607 3.9209C26.8317 4.29152 27.2865 4.79898 27.625 5.44434C27.9635 6.08981 28.1338 6.82529 28.1338 7.65039C28.1338 8.26431 28.0355 8.833 27.8398 9.35645C27.6442 9.87974 27.3743 10.3323 27.0312 10.7129C26.6874 11.0936 26.2791 11.3898 25.8086 11.6016C25.3375 11.8126 24.817 11.9189 24.2461 11.9189C23.8754 11.9189 23.5103 11.8586 23.1504 11.7373C22.7905 11.616 22.4706 11.4435 22.1904 11.2217C21.9103 10.9998 21.6855 10.7455 21.5166 10.46V14.7285H20.2158L20.2148 14.7275V3.52344H21.5156V4.8252C21.7589 4.39163 22.1371 4.03993 22.6504 3.77051C23.1631 3.5011 23.7162 3.36527 24.3086 3.36523ZM24.1494 4.52246C23.6421 4.52246 23.229 4.63368 22.8477 4.85547C22.467 5.07799 22.1603 5.38561 21.9277 5.77637C21.6945 6.1678 21.5569 6.61203 21.5146 7.10938V8.2041C21.5569 8.70124 21.6912 9.14333 21.9189 9.5293C22.1461 9.9153 22.448 10.2174 22.8232 10.4346C23.1985 10.6517 23.6249 10.7597 24.1006 10.7598H24.1025C24.4095 10.7598 24.7001 10.7124 24.9756 10.6172C25.2501 10.5221 25.4983 10.3842 25.7207 10.2041C25.9426 10.0245 26.1338 9.80677 26.292 9.55273C26.4508 9.29876 26.5728 9.01078 26.6572 8.68848C26.7417 8.36612 26.7832 8.02491 26.7832 7.66504C26.7832 7.03033 26.6696 6.47735 26.4424 6.00684C26.2145 5.53631 25.9027 5.17053 25.5059 4.91113C25.1091 4.65186 24.6567 4.52248 24.1494 4.52246Z" fill="black"/>
  <path fill-rule="evenodd" clip-rule="evenodd" d="M51.5215 3.36523C52.2514 3.36523 52.9026 3.55024 53.4736 3.9209C54.0446 4.29152 54.4994 4.79898 54.8379 5.44434C55.1764 6.08981 55.3467 6.82529 55.3467 7.65039C55.3467 8.26431 55.2484 8.833 55.0527 9.35645C54.857 9.87974 54.5872 10.3323 54.2441 10.7129C53.9003 11.0936 53.492 11.3898 53.0215 11.6016C52.5504 11.8126 52.0298 11.9189 51.459 11.9189C51.0883 11.9189 50.7232 11.8586 50.3633 11.7373C50.0034 11.616 49.6835 11.4435 49.4033 11.2217C49.1232 10.9998 48.8984 10.7455 48.7295 10.46V14.7285H47.4287L47.4277 14.7275V3.52344H48.7285V4.8252C48.9718 4.39163 49.35 4.03993 49.8633 3.77051C50.376 3.5011 50.9291 3.36527 51.5215 3.36523ZM51.3623 4.52246C50.855 4.52246 50.4419 4.63368 50.0605 4.85547C49.6798 5.07799 49.3732 5.38561 49.1406 5.77637C48.9074 6.1678 48.7698 6.61203 48.7275 7.10938V8.2041C48.7697 8.70124 48.9041 9.14333 49.1318 9.5293C49.359 9.9153 49.6609 10.2174 50.0361 10.4346C50.4114 10.6517 50.8378 10.7597 51.3135 10.7598H51.3154C51.6224 10.7598 51.913 10.7124 52.1885 10.6172C52.463 10.5221 52.7112 10.3842 52.9336 10.2041C53.1555 10.0245 53.3467 9.80677 53.5049 9.55273C53.6637 9.29876 53.7857 9.01078 53.8701 8.68848C53.9545 8.36612 53.9961 8.02491 53.9961 7.66504C53.9961 7.03033 53.8825 6.47735 53.6553 6.00684C53.4274 5.53631 53.1156 5.17053 52.7188 4.91113C52.322 4.65186 51.8696 4.52248 51.3623 4.52246Z" fill="black"/>
  <path fill-rule="evenodd" clip-rule="evenodd" d="M33.1084 3.36523C33.7532 3.36523 34.3012 3.46346 34.751 3.65918C35.2006 3.85489 35.569 4.11418 35.8545 4.43652C36.1406 4.75951 36.3592 5.1165 36.5127 5.50781C36.6661 5.89907 36.7644 6.29284 36.8066 6.68945L36.8037 6.68848C36.8459 7.08519 36.8459 7.44769 36.8037 7.77539H30.4922C30.5109 8.357 30.619 8.86592 30.8213 9.29883C31.0438 9.77539 31.3591 10.1405 31.7666 10.3945C32.1734 10.6484 32.6471 10.7754 33.1865 10.7754C33.6094 10.7754 33.9719 10.7147 34.2734 10.5928C34.9201 10.3395 35.2829 9.72836 35.5195 9.09375L36.7695 9.64941C36.4484 10.5748 35.7754 11.2446 34.8613 11.6172C34.3694 11.8182 33.8065 11.9189 33.1719 11.9189C32.5794 11.9189 32.0418 11.8148 31.5605 11.6084C31.0796 11.402 30.662 11.109 30.3076 10.7285C29.953 10.3478 29.6757 9.89458 29.4746 9.37109C29.2736 8.84769 29.1729 8.25768 29.1729 7.63379C29.1729 7.00992 29.2711 6.43548 29.4668 5.91211C29.6618 5.38881 29.9341 4.93628 30.2832 4.55566C30.6324 4.17495 31.0456 3.88125 31.5215 3.6748C31.998 3.46841 32.5267 3.36527 33.1084 3.36523ZM33.1084 4.42871C32.6963 4.42875 32.3257 4.50475 31.998 4.6582C31.6704 4.81166 31.3947 5.02853 31.1729 5.30859C30.9503 5.58875 30.7817 5.925 30.665 6.31641C30.6228 6.45916 30.5903 6.60861 30.5635 6.76074L35.457 6.76172C35.4356 6.41251 35.3645 6.09413 35.2432 5.80859C35.1219 5.52317 34.9623 5.27767 34.7666 5.07129C34.5709 4.86487 34.3329 4.70598 34.0527 4.59473C33.772 4.48358 33.4574 4.42871 33.1084 4.42871Z" fill="black"/>
  <path fill-rule="evenodd" clip-rule="evenodd" d="M63.2725 3.36523C63.9173 3.36523 64.4653 3.46346 64.915 3.65918C65.3647 3.85489 65.7331 4.11418 66.0186 4.43652C66.3046 4.75951 66.5233 5.1165 66.6768 5.50781C66.8302 5.89907 66.9285 6.29284 66.9707 6.68945L66.9678 6.68848C67.01 7.08519 67.01 7.44769 66.9678 7.77539H60.6562C60.675 8.357 60.7831 8.86592 60.9854 9.29883C61.2079 9.77539 61.5231 10.1405 61.9307 10.3945C62.3374 10.6484 62.8112 10.7754 63.3506 10.7754C63.7734 10.7754 64.1359 10.7147 64.4375 10.5928C65.0842 10.3395 65.447 9.72836 65.6836 9.09375L66.9336 9.64941C66.6125 10.5748 65.9395 11.2446 65.0254 11.6172C64.5335 11.8182 63.9705 11.9189 63.3359 11.9189C62.7434 11.9189 62.2059 11.8148 61.7246 11.6084C61.2437 11.402 60.8261 11.109 60.4717 10.7285C60.1171 10.3478 59.8398 9.89458 59.6387 9.37109C59.4377 8.84769 59.3369 8.25768 59.3369 7.63379C59.337 7.00992 59.4352 6.43548 59.6309 5.91211C59.8259 5.38881 60.0982 4.93628 60.4473 4.55566C60.7965 4.17495 61.2097 3.88125 61.6855 3.6748C62.162 3.46841 62.6908 3.36527 63.2725 3.36523ZM63.2725 4.42871C62.8604 4.42875 62.4898 4.50475 62.1621 4.6582C61.8344 4.81166 61.5587 5.02853 61.3369 5.30859C61.1144 5.58875 60.9457 5.925 60.8291 6.31641C60.7869 6.45916 60.7543 6.60861 60.7275 6.76074L65.6211 6.76172C65.5996 6.41251 65.5285 6.09413 65.4072 5.80859C65.2859 5.52317 65.1263 5.27767 64.9307 5.07129C64.735 4.86487 64.4969 4.70598 64.2168 4.59473C63.9361 4.48358 63.6215 4.42871 63.2725 4.42871Z" fill="black"/>
  <path fill-rule="evenodd" clip-rule="evenodd" d="M9.25098 3.36328C10.0339 3.36328 10.73 3.54829 11.3379 3.91895C11.9458 4.2896 12.4252 4.7945 12.7744 5.43457C13.1235 6.07452 13.2978 6.807 13.2979 7.63184C13.2979 8.24573 13.1971 8.81446 12.9961 9.33789C12.795 9.86137 12.5118 10.317 12.1465 10.7031C11.782 11.089 11.3531 11.3879 10.8613 11.5996C10.3695 11.8107 9.8326 11.9169 9.25098 11.917C8.4681 11.917 7.772 11.732 7.16406 11.3613C6.55549 10.9913 6.07674 10.4833 5.72754 9.83789C5.37839 9.19246 5.2041 8.45687 5.2041 7.63184C5.20414 7.01872 5.30484 6.45256 5.50586 5.93457C5.70689 5.41658 5.98687 4.96414 6.34668 4.57812C6.70589 4.19211 7.13215 3.89246 7.62402 3.68066C8.11594 3.46888 8.65854 3.36331 9.25098 3.36328ZM9.24902 4.52246C8.93204 4.52248 8.63579 4.56988 8.36035 4.66504C8.08492 4.76021 7.83676 4.90067 7.61426 5.08496C7.39245 5.26991 7.20113 5.49233 7.04297 5.75098C6.88411 6.01037 6.76286 6.29917 6.67773 6.61621C6.59264 6.9332 6.55176 7.27264 6.55176 7.63184C6.55179 8.23497 6.66472 8.77173 6.89258 9.24219C7.1198 9.71338 7.44033 10.0831 7.85254 10.3525C8.2653 10.6219 8.73011 10.7577 9.24805 10.7578L9.25098 10.7588C9.56839 10.7587 9.86162 10.7078 10.1309 10.6074C10.4002 10.5069 10.6467 10.3646 10.8691 10.1797C11.091 9.99469 11.284 9.77209 11.4482 9.5127C11.6117 9.25335 11.7369 8.9654 11.8213 8.64844C11.9057 8.33073 11.9473 7.99275 11.9473 7.63281C11.9473 7.02963 11.8312 6.49541 11.5986 6.03027C11.3661 5.56518 11.0486 5.19686 10.6465 4.92676C10.2443 4.65731 9.77854 4.52246 9.24902 4.52246Z" fill="black"/>
  <path fill-rule="evenodd" clip-rule="evenodd" d="M41.9688 3.36328C42.7516 3.36328 43.4477 3.54829 44.0557 3.91895C44.6635 4.2896 45.143 4.7945 45.4922 5.43457C45.8413 6.07452 46.0156 6.80699 46.0156 7.63184C46.0156 8.24573 45.9149 8.81446 45.7139 9.33789C45.5128 9.86137 45.2296 10.317 44.8643 10.7031C44.4997 11.089 44.0709 11.3879 43.5791 11.5996C43.0872 11.8107 42.5504 11.9169 41.9688 11.917C41.1859 11.917 40.4898 11.732 39.8818 11.3613C39.2733 10.9913 38.7945 10.4833 38.4453 9.83789C38.0962 9.19246 37.9219 8.45686 37.9219 7.63184C37.9219 7.01872 38.0226 6.45256 38.2236 5.93457C38.4247 5.41658 38.7046 4.96414 39.0645 4.57812C39.4237 4.19211 39.8499 3.89246 40.3418 3.68066C40.8337 3.46889 41.3763 3.36331 41.9688 3.36328ZM41.9668 4.52246C41.6498 4.52248 41.3536 4.56988 41.0781 4.66504C40.8027 4.76021 40.5545 4.90067 40.332 5.08496C40.1102 5.26991 39.9189 5.49233 39.7607 5.75098C39.6019 6.01037 39.4806 6.29917 39.3955 6.61621C39.3104 6.9332 39.2695 7.27264 39.2695 7.63184C39.2696 8.23497 39.3825 8.77173 39.6104 9.24219C39.8376 9.71339 40.1581 10.0831 40.5703 10.3525C40.9831 10.6219 41.4479 10.7577 41.9658 10.7578L41.9688 10.7588C42.2862 10.7587 42.5794 10.7078 42.8486 10.6074C43.118 10.5069 43.3645 10.3646 43.5869 10.1797C43.8088 9.99469 44.0018 9.77209 44.166 9.5127C44.3295 9.25335 44.4546 8.9654 44.5391 8.64844C44.6235 8.33073 44.665 7.99275 44.665 7.63281C44.665 7.02963 44.549 6.49541 44.3164 6.03027C44.0839 5.56518 43.7663 5.19687 43.3643 4.92676C42.9621 4.65731 42.4963 4.52246 41.9668 4.52246Z" fill="black"/>
  <path d="M3.82422 0C4.21298 0 4.59618 0.0865475 4.91992 0.269531V1.41211C4.61374 1.26605 4.3188 1.17391 3.96777 1.17383C3.66079 1.17383 3.39079 1.28038 3.1582 1.49219C2.92578 1.70393 2.80964 2.03149 2.80957 2.47559V3.52344H4.91992V4.65039H2.80957V11.7598H1.52344V4.65039H0V3.52344H1.52344V2.42871C1.52344 1.87842 1.62411 1.42341 1.8252 1.06348C2.02627 0.704315 2.30125 0.436626 2.65039 0.261719C2.99945 0.0875782 3.39079 4.56274e-05 3.82422 0Z" fill="black"/>
  <path d="M18.3926 3.36523C18.5634 3.36323 18.7266 3.37267 18.8848 3.39746V4.66699C18.4089 4.58254 17.9981 4.60557 17.6543 4.73828C17.3106 4.87029 17.0226 5.06595 16.79 5.3252C16.5575 5.58459 16.3718 5.86537 16.2344 6.16699C16.1355 6.38398 16.0612 6.59125 16.0117 6.78906V11.7598H14.71V3.52344H16.0117V4.91992C16.1034 4.74126 16.2116 4.57181 16.3369 4.41211C16.5856 4.0944 16.8852 3.84172 17.2344 3.65137C17.5836 3.46101 17.9696 3.36523 18.3926 3.36523Z" fill="black"/>
  <path d="M58.0605 11.7588H56.7588V0.158203H58.0605V11.7588Z" fill="black"/>
</svg>
