<svg width="278" height="66" viewBox="0 0 278 66" fill="none" xmlns="http://www.w3.org/2000/svg">
<path fill-rule="evenodd" clip-rule="evenodd" d="M182.332 6.99393C182.332 6.99393 176.726 8.28398 169.911 6.99873C163.514 5.795 157.49 7.00352 157.49 7.00352V0.538885C157.49 0.538885 163.475 -0.573723 169.906 0.53409C176.246 1.67068 182.327 0.529294 182.327 0.529294V6.98914L182.332 6.99393Z" fill="black"/>
<path d="M8.80888 13.2227H0.435547V64.8151H41.1656V56.8638H8.80888V13.2227Z" fill="black"/>
<path d="M91.3707 12.3828C76.1827 12.3828 64.7305 23.835 64.7305 39.0231C64.7305 54.2111 76.1827 65.6633 91.3707 65.6633C106.559 65.6633 118.011 54.2111 118.011 39.0231C118.011 23.835 106.559 12.3828 91.3707 12.3828ZM91.3707 57.784C80.9065 57.784 73.3148 49.895 73.3148 39.0231C73.3148 28.1512 80.9065 20.2622 91.3707 20.2622C101.835 20.2622 109.427 28.3286 109.427 39.0231C109.427 49.7175 101.835 57.784 91.3707 57.784Z" fill="black"/>
<path d="M157.063 41.4071H182.687V33.5278H157.063V21.102H189.492V13.2227H148.762V64.8151H189.492V56.9357H157.063V41.4071Z" fill="black"/>
<path d="M265.905 13.2227L248.995 52.6531L232.09 13.2227H220.24V64.8151H228.12V23.9267L245.691 64.8151H251.667L269.382 23.639V64.8151H277.401V13.2227H265.905Z" fill="black"/>
</svg>
