<svg width="162" height="46" viewBox="0 0 162 46" fill="none" xmlns="http://www.w3.org/2000/svg">
<path fill-rule="evenodd" clip-rule="evenodd" d="M104.443 9.1407C104.443 9.1407 101.398 9.83451 97.6976 9.14328C94.2234 8.49589 90.9524 9.14586 90.9524 9.14586V5.66906C90.9524 5.66906 94.2026 5.07068 97.695 5.66648C101.138 6.27776 104.44 5.6639 104.44 5.6639V9.13812L104.443 9.1407Z" fill="black"/>
<path d="M10.2115 12.4922H5.66431V40.2395H27.7828V35.9632H10.2115V12.4922Z" fill="black"/>
<path d="M55.0467 12.0352C46.7988 12.0352 40.5797 18.1944 40.5797 26.3628C40.5797 34.5312 46.7988 40.6904 55.0467 40.6904C63.2946 40.6904 69.5137 34.5312 69.5137 26.3628C69.5137 18.1944 63.2946 12.0352 55.0467 12.0352ZM55.0467 36.4527C49.364 36.4527 45.2414 32.2099 45.2414 26.3628C45.2414 20.5157 49.364 16.2728 55.0467 16.2728C60.7293 16.2728 64.852 20.6111 64.852 26.3628C64.852 32.1145 60.7293 36.4527 55.0467 36.4527Z" fill="black"/>
<path d="M90.721 27.6503H104.636V23.4126H90.721V16.7299H108.331V12.4922H86.213V40.2395H108.331V36.0019H90.721V27.6503Z" fill="black"/>
<path d="M149.828 12.4922L140.645 33.6986L131.464 12.4922H125.029V40.2395H129.308V18.249L138.85 40.2395H142.095L151.716 18.0943V40.2395H156.07V12.4922H149.828Z" fill="black"/>
</svg>
