<?xml version="1.0" encoding="UTF-8"?>
<svg id="Artwork" xmlns="http://www.w3.org/2000/svg" version="1.1" viewBox="0 0 799.73 333.3">
  <!-- Generator: Adobe Illustrator 30.3.0, SVG Export Plug-In . SVG Version: 2.1.3 Build 182)  -->
  <defs>
    <style>
      .st0, .st1 {
        fill: #171a20;
      }

      .st1 {
        fill-rule: evenodd;
      }
    </style>
  </defs>
  <path class="st1" d="M490.38,99.86s-11.69,2.69-25.9.01c-13.34-2.51-25.9.01-25.9.01v-13.47s12.48-2.32,25.89-.01c13.22,2.37,25.9-.01,25.9-.01v13.47h0Z"/>
  <polygon class="st0" points="128.56 112.86 111.1 112.86 111.1 220.44 196.03 220.44 196.03 203.86 128.56 203.86 128.56 112.86"/>
  <path class="st0" d="M300.71,111.1c-31.67,0-55.55,23.88-55.55,55.55s23.88,55.55,55.55,55.55,55.55-23.88,55.55-55.55-23.88-55.55-55.55-55.55ZM300.71,205.77c-21.82,0-37.65-16.45-37.65-39.12s15.83-39.12,37.65-39.12,37.65,16.82,37.65,39.12-15.83,39.12-37.65,39.12Z"/>
  <polygon class="st0" points="437.7 171.63 491.13 171.63 491.13 155.2 437.7 155.2 437.7 129.29 505.32 129.29 505.32 112.86 420.39 112.86 420.39 220.44 505.32 220.44 505.32 204.01 437.7 204.01 437.7 171.63"/>
  <polygon class="st0" points="664.66 112.86 629.41 195.08 594.15 112.86 569.45 112.86 569.45 220.44 585.88 220.44 585.88 135.18 622.51 220.44 634.98 220.44 671.91 134.58 671.91 220.44 688.63 220.44 688.63 112.86 664.66 112.86"/>
</svg>