<svg width="470" height="332" viewBox="0 0 470 332" fill="none" xmlns="http://www.w3.org/2000/svg">
<path d="M429.643 274.472C429.328 273.549 429.023 272.364 428.898 270.967C428.687 268.607 429.083 266.658 429.454 265.391C429.059 264.896 428.446 264.175 427.618 263.39C424.414 260.355 421.023 259.157 420.003 258.773C413.695 256.397 411.454 252.179 401.398 246.277C401.398 246.277 394.7 242.345 387.21 239.663C381.205 237.512 368.209 234 349.188 237.835C348.65 237.39 347.832 236.693 346.882 235.793C342.985 232.101 341.401 229.287 339.646 227.176C336.166 222.99 331.723 221.214 329.287 220.24C322.817 217.653 316.99 218.467 312.882 218.904C307.975 219.426 302.109 221.75 290.346 226.138C289.172 226.576 286.479 227.589 282.749 228.499C279.524 229.286 276.845 229.673 275.148 229.874C275.493 228.132 276.034 225.481 276.762 222.263C278.849 213.031 279.447 212.49 279.98 208.987C280.633 204.69 281.475 197.837 278.097 191.046C275.514 185.855 270.995 183.242 268.789 181.967C261.08 177.509 253.327 178.387 249.406 178.887C244.368 179.53 240.603 181.056 235.048 183.71C226.864 187.619 221.374 190.83 209.819 197.664C199.397 203.829 195 206.448 187.135 211.032C183.044 213.417 180.739 214.761 177.812 216.438C153.281 230.497 140.147 236.441 134.927 238.733C131.045 240.436 127.313 241.975 122.582 243.512C115.982 245.657 110.396 246.839 106.661 247.506C105.759 247.055 104.35 246.199 103.218 244.658C102.306 243.417 101.327 241.396 101.398 237.7C101.603 227.01 108.879 215.223 108.879 215.223C111.642 210.056 116.345 203.325 124.303 199.139C126.995 197.723 129.142 197.08 130.063 196.792C144.36 192.321 163.996 179.362 174.297 172.563C208.538 149.964 211.431 141.463 212.279 138.115C212.958 135.439 214.711 128.521 211.198 122.313C208.856 118.174 205.17 116.13 202.737 114.759C200.365 113.424 195.519 111.134 185.116 110.769C179.012 110.555 171.84 111.033 162.971 113.141C146.665 117.014 135.145 123.893 128.396 127.994C120.294 132.918 114.49 137.581 110.835 140.538C105.265 145.045 102.352 147.954 92.5525 157.232C88.1065 161.441 81.5285 167.638 73.3551 175.219C71.6139 175.468 68.9639 175.885 65.7658 176.553C55.0713 178.786 49.7241 179.902 45.2804 183.94C40.5533 188.235 39.1284 193.742 38.5883 195.946C37.0053 202.404 36.8908 213.697 44.3215 218.962C47.4656 221.19 50.9175 221.643 53.1131 221.706C52.7824 224.264 52.3488 228.082 52.0554 232.73C51.1886 246.458 50.6749 254.596 53.7669 263.512C57.2008 273.415 63.4721 279.633 65.6998 281.688C75.8542 291.058 87.5849 292.93 91.9977 293.573C109.691 296.155 123.743 288.845 147.985 275.844C162.357 268.136 164.348 265.459 185.042 253.338C199.543 244.844 211.728 238.448 219.825 234.34C219.468 237.147 219.085 241.143 219.056 245.96C219.021 251.841 219.001 255.1 220.133 258.734C222.352 265.861 227.629 270.043 229.286 271.355C241.443 280.988 258.706 277.199 262.541 276.357C266.849 275.412 267.095 274.763 294.127 262.813C297.87 261.159 300.964 259.802 303.05 258.889C305.088 266.752 309.004 270.034 310.973 271.355C318.417 276.354 328.832 274.023 336.278 272.355C344.659 270.479 346.979 268.146 352.996 269.025C357.142 269.631 359.482 271.241 364.738 274.202C364.738 274.202 371.106 277.79 384.965 284.27C391.858 287.493 402.505 290.316 418.691 288.078C421.449 288.276 422.393 287.713 422.719 287.12C422.991 286.627 422.803 286.169 423.157 285.476C423.595 284.618 424.466 284.182 425.141 283.946C425.384 282.65 425.906 281.911 426.464 281.474C427.609 280.578 428.864 280.978 429.425 280.051C429.72 279.563 429.547 279.165 429.464 278.012C429.403 277.176 429.391 275.971 429.643 274.472ZM187.193 116.271C186.186 116.418 185.913 116.144 186.06 115.137C187.067 114.99 187.341 115.264 187.193 116.271ZM191.712 115.854C189.692 112.454 193.045 114.003 194.952 114.187C197.984 114.561 201.551 120.378 196.693 119.129C192.124 114.382 196.643 119.918 194.053 120.978L194.85 123.133L192.888 123.133C193.852 121.243 191.812 120.756 193.244 119.061C193.055 117.615 188.467 117.395 191.712 115.854ZM188.793 113.563C189.038 115.568 186.2 114.346 185.653 113.162C185.653 113.162 188.793 113.563 188.793 113.563ZM180.169 112.942C184.175 113.31 180.309 115.498 182.116 117.085C179.72 116.514 178.009 113.523 178.183 117.875C186.129 116.928 180.698 128.646 179.578 119.825C179.135 119.129 175.132 118.912 175.505 115.811C175.822 113.168 177.783 112.723 180.169 112.942ZM172.494 113.961C172.898 114.118 174.654 113.5 174.232 114.595C173.83 114.438 172.073 115.056 172.494 113.961ZM164.826 115.124C165.462 115.218 166.621 117.619 166.393 117.874C165.669 118.682 164.665 115.581 164.826 115.124ZM110.836 151.3L110.837 150.517C111.216 151.045 112.165 151.427 110.836 151.3ZM112.794 157.199C112.218 157.389 112.459 156.724 112.409 156.416C112.985 156.226 112.745 156.89 112.794 157.199ZM114.368 150.512C114.059 150.461 113.397 150.703 113.587 150.127C113.896 150.178 114.558 149.936 114.368 150.512ZM124.79 172.531C123.588 172.091 124.884 170.491 125.768 172.531C125.458 172.498 125.026 172.617 124.79 172.531ZM126.943 170.962C126.706 171.261 123.954 168.53 123.031 169.373C123.265 165.876 119.314 166.012 117.516 164.079C117.01 163.11 119.497 163.773 119.48 162.709C118.254 162.881 115.73 163.213 117.481 161.384C117.546 160.619 113.208 155.098 116.341 156.02C116.464 155.912 115.208 153.216 117.907 155.436C117.847 156.309 115.114 157.327 117.924 157.425C119.496 157.149 118.298 154.161 117.913 153.061L115.157 153.658C116.855 148.957 120.643 151.838 120.354 155.343C121.808 160.321 127.049 165.892 126.943 170.962ZM118.684 137.327V138.105C116.075 138.277 115.837 136.116 118.684 137.327ZM116.731 140.029C117.253 139.51 119.502 141.026 119.471 141.799C119.41 143.329 115.819 140.937 116.731 140.029ZM114.959 148.14C116.586 147.715 115.432 146.403 115.16 145.405C115.56 145.833 117.226 147.21 117.392 147.49C119.897 150.56 114.129 150.533 114.959 148.14ZM114.762 145.01C111.773 143.812 113.909 147.382 110.835 144.229C112.534 145.165 114.651 142.825 114.762 145.01ZM64.6108 188.213L64.6064 184.815C67.4398 183.923 66.7339 187.67 64.6108 188.213ZM63.985 181.266C65.5048 181.29 66.388 181.161 66.7387 179.499C71.6456 180.092 66.0389 184.176 63.985 181.266ZM250.634 186.572C249.726 185.79 250.44 184.929 251.028 184.228C251.935 185.011 251.221 185.872 250.634 186.572ZM255.69 182.246C255.089 182.147 253.805 182.617 254.172 181.498C254.773 181.597 256.057 181.127 255.69 182.246ZM263.799 189.331C261.638 189.58 261.638 187.119 263.799 187.368V189.331ZM272.665 189.336C267.517 194.427 268.187 184.896 263.036 185.575C260.464 184.414 261.232 184.4 258.113 183.816C256.255 183.468 255.861 181.114 258.704 182.088L259.088 180.289C262.644 184.09 261.047 180.127 266.157 184.027C266.512 185.849 262.976 184.915 267.733 186.823C268.975 186.058 271.9 185.854 270.878 188.15L271.852 187.37C272.323 187.821 273.053 188.615 272.665 189.336ZM115.877 250.733C110.672 251.835 104.124 248.291 113.845 249.32C116.018 249.313 119.604 248.803 121.673 248.288C123.395 249.331 116.407 250.685 115.877 250.733Z" fill="black"/>
<path d="M120.582 164.159C124.132 167.27 122.368 165.025 123.013 162.312C122.478 163.445 118.195 162.564 120.582 164.159Z" fill="black"/>
<path d="M120.264 160.347C119.281 160.092 119.496 160.854 119.482 161.523C120.465 161.777 120.25 161.016 120.264 160.347Z" fill="black"/>
<path d="M103.759 70.6951C103.455 69.6916 102.265 69.9068 101.401 69.9164C101.705 70.9198 102.895 70.7047 103.759 70.6951Z" fill="black"/>
<path d="M56.0935 111.987C76.4272 121.48 102.679 112.339 119.31 106.611C136.344 100.744 152.369 92.5204 166.034 85.5078C171.096 82.9097 175.241 80.6782 178.039 79.1489C184.841 78.3325 194.422 76.0566 203.647 69.6035C208.803 65.9965 215.474 61.33 216.954 53.2122C217.24 51.6416 218.152 46.6395 215.416 42.3451C210.648 34.8638 198.318 35.0356 190.966 37.2339C181.084 40.1888 175.923 48.081 174.341 50.7496C168.631 51.6981 159.846 53.1538 149.104 54.9186C119.695 59.7502 104.942 62.1687 102.58 62.3186C77.5106 63.9076 69.2699 59.141 56.1961 66.77C52.9179 68.6831 45.6789 73.048 42.4536 81.8138C41.6112 84.1038 39.0033 92.2367 42.864 100.283C43.4817 101.571 46.496 107.506 56.0935 111.987ZM212.229 49.862C209.885 48.4536 210.976 46.4828 212.881 46.3351C215.74 46.1131 215.883 52.0562 212.229 49.862ZM204.645 41.6886C206.156 40.0162 202.626 40.0771 201.496 39.5724C201.187 36.1877 212.379 41.6361 212.302 42.4332C209.15 46.9948 204.937 44.0771 200.518 42.8462C201.324 41.6377 203.597 42.8474 204.645 41.6886ZM200.387 38.245C200.566 38.539 199.958 40.3495 198.765 40.1388C198.687 40.1252 199.069 39.0389 198.225 39.3249C198.191 39.9806 197.987 41.0088 197.14 40.9479C195.742 38.4324 199.744 37.1883 200.387 38.245ZM199.303 42.1736C199.502 43.1602 197.087 42.8065 196.597 42.8426C196.713 42.0583 199.141 41.3701 199.303 42.1736ZM207.145 46.4985C206.637 48.706 203.307 47.8471 202.403 46.9082C201.695 46.7897 195.361 47.5816 195.783 45.6986C197.374 43.731 206.083 45.3172 207.145 46.4985ZM194.97 41.4931C195.377 41.9013 193.072 43.6437 192.805 43.3841C192.96 43.0536 194.651 41.173 194.97 41.4931ZM169.6 55.0368C168.953 56.6979 165.192 55.35 163.743 55.755C164.39 54.0935 168.151 55.4417 169.6 55.0368ZM97.2798 69.8303C96.7557 69.8251 92.9194 69.2783 92.7537 69.1205C91.4053 67.3656 103.827 68.9106 97.2798 69.8303ZM119.287 65.189C120.48 65.5391 122.84 64.3194 122.042 66.3819C122.148 67.1389 113.044 65.3016 112.794 65.3853C112.862 63.2639 118.115 65.0219 119.287 65.189ZM115.159 67.9492C115.159 67.9488 116.727 67.9488 116.727 67.9488C117.093 68.5356 114.793 68.5361 115.159 67.9492ZM114.37 68.3342C113.506 68.3438 112.317 68.5593 112.013 67.5559C112.877 67.5459 114.066 67.3312 114.37 68.3342ZM105.331 66.3682C104.921 66.6895 103.953 65.7457 104.152 65.5896C104.562 65.2683 105.53 66.212 105.331 66.3682ZM107.779 69.6244C110.46 70.0285 112.823 70.8421 115.745 71.0139C122.755 71.6196 103.538 72.6238 100.592 70.9158C96.1583 68.6338 105.842 68.7451 107.779 69.6244ZM94.9348 65.1742C96.6036 65.8079 102.688 64.5501 101.598 65.9781C101.597 65.9789 91.9681 65.9789 91.9681 65.9789C90.6878 65.0123 94.5397 65.1553 94.9348 65.1742Z" fill="black"/>
</svg>
